<?xml version="1.0" standalone="no"?>
<!DOCTYPE svg PUBLIC "-//W3C//DTD SVG 20010904//EN"
 "http://www.w3.org/TR/2001/REC-SVG-20010904/DTD/svg10.dtd">
<svg version="1.0" xmlns="http://www.w3.org/2000/svg"
 width="700.000000pt" height="700.000000pt" viewBox="0 0 700.000000 700.000000"
 preserveAspectRatio="xMidYMid meet">
<metadata>
Created by potrace 1.11, written by Peter Selinger 2001-2013
</metadata>
<g transform="translate(0.000000,700.000000) scale(0.100000,-0.100000)"
fill="#000000" stroke="none">
<path d="M300 6985 c-148 -46 -258 -162 -290 -305 -6 -29 -10 -1130 -10 -3180
0 -3402 -3 -3189 53 -3289 46 -81 123 -146 217 -187 44 -19 113 -19 3200 -22
2167 -1 3171 1 3205 8 56 12 138 53 181 90 55 47 109 132 132 205 12 36 13
6315 2 6371 -30 145 -148 270 -292 308 -79 22 -6330 22 -6398 1z m6290 -3485
l0 -3090 -3090 0 -3090 0 0 3090 0 3090 3090 0 3090 0 0 -3090z"/>
<path d="M1023 6099 c-40 -12 -100 -70 -119 -115 -52 -125 39 -270 175 -279
66 -5 120 17 163 66 143 159 -11 388 -219 328z"/>
<path d="M5822 6091 c-78 -37 -123 -113 -118 -197 4 -62 24 -101 70 -142 75
-66 187 -65 266 0 68 56 88 165 46 248 -47 94 -168 136 -264 91z"/>
<path d="M1584 4459 c-240 -40 -434 -212 -484 -429 -28 -121 -6 -270 56 -377
38 -66 124 -148 190 -181 34 -17 148 -65 255 -107 107 -42 222 -89 255 -105
150 -70 190 -159 114 -252 -119 -144 -417 -118 -600 54 -66 61 -108 81 -174
79 -132 -3 -223 -133 -186 -265 24 -86 197 -229 356 -296 137 -57 222 -73 384
-73 134 -1 233 23 340 78 243 129 373 388 315 634 -23 97 -70 177 -155 261
-86 85 -149 125 -276 176 -49 20 -98 40 -109 45 -11 4 -65 26 -120 48 -243 97
-247 100 -247 164 0 94 107 155 249 144 90 -7 164 -34 272 -100 108 -65 155
-72 236 -32 95 46 138 152 100 251 -26 69 -83 117 -222 188 -177 90 -374 124
-549 95z"/>
<path d="M3334 4460 c-139 -25 -267 -93 -355 -189 -192 -208 -190 -519 3 -713
63 -63 112 -90 293 -163 66 -26 134 -53 150 -60 17 -8 61 -25 99 -39 94 -36
158 -72 197 -112 27 -28 33 -41 33 -83 1 -41 -4 -56 -30 -88 -17 -21 -57 -51
-88 -67 -138 -71 -373 -19 -516 115 -65 61 -103 79 -168 80 -111 3 -202 -89
-202 -205 0 -78 39 -136 154 -230 161 -131 364 -200 586 -200 219 0 364 57
505 199 262 263 225 636 -86 854 -68 48 -130 77 -319 151 -335 131 -354 143
-340 223 14 80 106 128 231 122 41 -2 81 -5 89 -7 68 -18 131 -47 197 -91 74
-48 82 -51 143 -52 91 0 148 34 185 109 49 100 20 198 -80 271 -80 58 -209
120 -311 150 -99 30 -279 41 -370 25z"/>
<path d="M4755 4464 c-41 -10 -99 -60 -123 -106 l-24 -46 1 -794 c1 -548 5
-804 13 -830 6 -20 26 -53 44 -72 61 -64 76 -67 389 -65 257 1 287 3 371 24
151 38 249 96 364 215 110 114 179 238 226 409 61 220 47 536 -32 741 -103
264 -269 424 -524 503 -58 18 -96 20 -375 23 -170 1 -319 0 -330 -2z m647
-437 c156 -76 241 -258 241 -517 -1 -283 -117 -485 -306 -534 -28 -7 -112 -14
-184 -15 l-133 -2 0 306 c0 168 0 404 0 525 0 121 0 232 0 246 l0 26 163 -4
c152 -3 165 -5 219 -31z"/>
<path d="M998 1271 c-37 -18 -57 -37 -79 -75 -27 -45 -30 -58 -26 -114 8 -109
76 -179 185 -189 46 -4 66 -1 98 15 85 44 127 114 120 200 -5 62 -24 100 -70
140 -65 57 -144 65 -228 23z"/>
<path d="M5836 1286 c-130 -48 -175 -218 -86 -322 43 -50 80 -67 146 -70 221
-10 297 280 101 382 -41 22 -116 27 -161 10z"/>
</g>
</svg>
