<svg height="512" viewBox="0 0 512 512" width="512" xmlns="http://www.w3.org/2000/svg"><g id="BULINE"><circle cx="256" cy="256" fill="#a99bd4" r="256"/></g><g id="Icons"><path d="m402.09 72.76v370a27.54 27.54 0 0 1 -27.55 27.55h-239.23a27.54 27.54 0 0 1 -27.55-27.55v-370a27.55 27.55 0 0 1 27.55-27.56h128.1c5.61 0 7 1.4 7 7v36c0 4.77-.72 11.77-5.48 11.77h32.87c-4.76 0-5-3.86-5-8.62v-36c0-5.6 1-10.15 6.56-10.15h75.19a27.56 27.56 0 0 1 27.54 27.56z" fill="#3e436d"/><path d="m215.14 470.26h-79.83a27.54 27.54 0 0 1 -27.55-27.55v-370a27.54 27.54 0 0 1 27.55-27.51h79.83a27.54 27.54 0 0 0 -27.55 27.55v370a27.54 27.54 0 0 0 27.55 27.51z" fill="#32314b"/><circle cx="378.34" cy="229.62" fill="#4f4f74" r="15.77"/><circle cx="378.34" cy="196.77" fill="#4f4f74" r="11.17"/><path d="m273.56 52.39v47.61h-113.17a8.62 8.62 0 0 1 -8.62-8.62v-46.18h114.61a7.19 7.19 0 0 1 7.18 7.19z" fill="#f6c752"/><path d="m355.47 45.2v46.17a8.62 8.62 0 0 1 -8.62 8.62h-57.66v-47.6a7.19 7.19 0 0 1 7.18-7.19z" fill="#f6c752"/><g fill="#e88032"><path d="m169.51 72.6h9.25a3.73 3.73 0 0 1 3.73 3.73v23.67a0 0 0 0 1 0 0h-16.71a0 0 0 0 1 0 0v-23.68a3.73 3.73 0 0 1 3.73-3.72z"/><path d="m194 72.6h9.25a3.73 3.73 0 0 1 3.75 3.72v23.68a0 0 0 0 1 0 0h-16.7a0 0 0 0 1 0 0v-23.68a3.73 3.73 0 0 1 3.7-3.72z"/><path d="m218.55 72.6h9.25a3.73 3.73 0 0 1 3.73 3.73v23.67a0 0 0 0 1 0 0h-16.71a0 0 0 0 1 0 0v-23.68a3.73 3.73 0 0 1 3.73-3.72z"/><path d="m243.07 72.6h9.25a3.73 3.73 0 0 1 3.68 3.72v23.68a0 0 0 0 1 0 0h-16.66a0 0 0 0 1 0 0v-23.68a3.73 3.73 0 0 1 3.73-3.72z"/><path d="m305.45 72.6h9.25a3.73 3.73 0 0 1 3.73 3.73v23.67a0 0 0 0 1 0 0h-16.71a0 0 0 0 1 0 0v-23.68a3.73 3.73 0 0 1 3.73-3.72z"/><path d="m330 72.6h9.25a3.73 3.73 0 0 1 3.73 3.73v23.67a0 0 0 0 1 0 0h-16.74a0 0 0 0 1 0 0v-23.68a3.73 3.73 0 0 1 3.76-3.72z"/></g><path d="m107.76 133.94h29.91a9.61 9.61 0 0 1 9.61 9.61 9.61 9.61 0 0 1 -9.61 9.61h-29.91a0 0 0 0 1 0 0v-19.22a0 0 0 0 1 0 0z" fill="#43b584"/><path d="m362.57 133.94h29.91a9.61 9.61 0 0 1 9.61 9.61 9.61 9.61 0 0 1 -9.61 9.61h-29.91a0 0 0 0 1 0 0v-19.22a0 0 0 0 1 0 0z" fill="#4acc97" transform="matrix(-1 0 0 -1 764.66 287.1)"/><path d="m107.76 394.95h29.91a9.61 9.61 0 0 1 9.61 9.61 9.61 9.61 0 0 1 -9.61 9.61h-29.91a0 0 0 0 1 0 0v-19.22a0 0 0 0 1 0 0z" fill="#43b584"/><path d="m362.57 394.95h29.91a9.61 9.61 0 0 1 9.61 9.61 9.61 9.61 0 0 1 -9.61 9.61h-29.91a0 0 0 0 1 0 0v-19.22a0 0 0 0 1 0 0z" fill="#4acc97" transform="matrix(-1 0 0 -1 764.66 809.12)"/><path d="m343 171.66v204.79a18.51 18.51 0 0 0 -18.56 18.55h-140.15a18.51 18.51 0 0 0 -18.51-18.5v-204.84a18.51 18.51 0 0 0 18.51-18.5h140.15a18.51 18.51 0 0 0 18.56 18.5z" fill="#fff"/><path d="m187.59 153.16v241.84h-3.3a18.51 18.51 0 0 0 -18.51-18.5v-204.84a18.51 18.51 0 0 0 18.51-18.5z" fill="#d8d8d8"/><path d="m179.5 287.5 14.75-2.66q1.86 6.26 9.56 6.26 6 0 6-3.19a2.94 2.94 0 0 0 -1.39-2.59 14.83 14.83 0 0 0 -4.94-1.65q-13.62-2.61-17.49-6.82a14.2 14.2 0 0 1 -3.86-9.9 15.48 15.48 0 0 1 5.55-12.17q5.57-4.86 16-4.86 15.81 0 20.89 12.7l-13.16 4q-2-5.19-8.3-5.19-5.21 0-5.2 3.22a2.54 2.54 0 0 0 1.18 2.24 14.16 14.16 0 0 0 4.55 1.51 96.13 96.13 0 0 1 13.2 3.48 14.3 14.3 0 0 1 6.52 5.17 14.48 14.48 0 0 1 2.61 8.63 15.28 15.28 0 0 1 -6.37 12.73q-6.37 4.88-16.72 4.88-18.93-.02-23.38-15.79z" fill="#27273d"/><path d="m226.67 287.5 14.75-2.66q1.86 6.26 9.56 6.26 6 0 6-3.19a2.94 2.94 0 0 0 -1.39-2.59 14.82 14.82 0 0 0 -5-1.65q-13.6-2.61-17.48-6.82a14.2 14.2 0 0 1 -3.86-9.9 15.48 15.48 0 0 1 5.55-12.17q5.55-4.86 16-4.86 15.81 0 20.89 12.7l-13.15 4c-1.37-3.46-4.13-5.19-8.31-5.19q-5.19 0-5.19 3.22a2.54 2.54 0 0 0 1.18 2.24 14.16 14.16 0 0 0 4.55 1.51 95.48 95.48 0 0 1 13.23 3.46 14.2 14.2 0 0 1 6.5 5.14 14.42 14.42 0 0 1 2.62 8.63 15.3 15.3 0 0 1 -6.37 12.73q-6.37 4.88-16.72 4.88-18.93.03-23.36-15.74z" fill="#27273d"/><path d="m279.19 302.47v-51.75h20q13 0 19.52 7.73a27 27 0 0 1 6.49 17.9q0 11.59-7 18.86t-18.07 7.26zm15.88-11.9h4.14q3.93 0 6.65-3.83t2.71-10.43a18.81 18.81 0 0 0 -2.41-9.74 7.63 7.63 0 0 0 -7-4.1h-4.14z" fill="#27273d"/></g></svg>